<svg xmlns="http://www.w3.org/2000/svg" width="600" height="500" version="1"><rect transform="rotate(90)" ry="10" rx="10" y="-360" x="240" height="20" width="70" fill-rule="evenodd"/><path d="M325 210a25 25 0 1 1-50 0 25 25 0 1 1 50 0z" fill-rule="evenodd"/><rect width="70" height="160" x="265" y="240" rx="20" ry="21.333" fill-rule="evenodd"/><rect transform="rotate(90)" width="70" height="20" x="240" y="-260" rx="10" ry="10" fill-rule="evenodd"/><path fill-rule="evenodd" stroke="#000" d="M250 287.929L391.42 429.35l-7.07 7.071-141.422-141.42z"/><path d="M257.071 436.421l63.64-63.64 63.64 63.64-63.64 63.64-63.64-63.64z" fill="#ff0" fill-rule="evenodd"/><path d="M320.71 372.782l63.64 63.64-63.64 63.639v-127.28z" fill="red" fill-rule="evenodd"/><path fill-rule="evenodd" stroke="#000" d="M357.071 295L215.65 436.421l-7.071-7.07L350 287.928z"/><path d="M257.071 436.421l63.64-63.64 63.64 63.64-63.64 63.64-63.64-63.64z" fill="none" stroke="#000" stroke-linejoin="round"/><path d="M342.929 436.422l-63.64 63.64-63.64-63.64 63.64-63.64 63.64 63.64z" fill="#ff0" fill-rule="evenodd"/><path d="M279.29 500.061l-63.64-63.64 63.64-63.639v127.28z" fill="red" fill-rule="evenodd"/><path d="M342.929 436.422l-63.64 63.64-63.64-63.64 63.64-63.64 63.64 63.64z" fill="none" stroke="#000" stroke-linejoin="round"/></svg>