<svg xmlns="http://www.w3.org/2000/svg" width="600" height="500" version="1"><g fill-rule="evenodd"><path d="M325 210a25 25 0 1 1-50 0 25 25 0 1 1 50 0z"/><rect width="70" height="160" x="265" y="240" rx="20" ry="21.333"/></g><rect width="70" height="20" x="-260" y="340" rx="10" ry="10" transform="rotate(-90)" fill-rule="evenodd"/><path transform="rotate(-90)" fill-rule="evenodd" stroke="#000" d="M-200 345H0v10h-200z"/><path d="M445 90h-90V0h90v90z" fill="#ff0" fill-rule="evenodd"/><path d="M355 90V0h90l-90 90z" fill="red" fill-rule="evenodd"/><path d="M445 90h-90V0h90v90z" fill="none" stroke="#000" stroke-linejoin="round"/><g><rect ry="10" rx="10" y="240" x="-260" height="20" width="70" transform="rotate(-90)" fill-rule="evenodd"/><path transform="rotate(-90)" fill-rule="evenodd" stroke="#000" d="M-200 245H0v10h-200z"/><path d="M155 90V0h90v90h-90z" fill="#ff0" fill-rule="evenodd"/><path d="M155 0h90v90L155 0z" fill="red" fill-rule="evenodd"/><path d="M155 90V0h90v90h-90z" fill="none" stroke="#000" stroke-linejoin="round"/></g></svg>