<svg xmlns="http://www.w3.org/2000/svg" width="600" height="500" version="1"><g fill-rule="evenodd"><path d="M325 210a25 25 0 1 1-50 0 25 25 0 1 1 50 0z"/><rect width="70" height="160" x="265" y="240" rx="20" ry="21.333"/></g><rect transform="rotate(135)" ry="10" rx="10" y="-411.637" x="-58.083" height="20" width="70" fill-rule="evenodd"/><path fill-rule="evenodd" stroke="#000" d="M286.18 288.891L144.76 430.313l-7.071-7.071L279.109 281.82z"/><path d="M272.038 430.312l-63.64 63.64-63.64-63.64 63.64-63.64 63.64 63.64z" fill="#ff0" fill-rule="evenodd"/><path d="M208.398 493.952l-63.64-63.64 63.64-63.64v127.28z" fill="red" fill-rule="evenodd"/><path d="M272.038 430.312l-63.64 63.64-63.64-63.64 63.64-63.64 63.64 63.64z" fill="none" stroke="#000" stroke-linejoin="round"/><g><rect transform="scale(-1)" width="70" height="20" x="-260" y="-260" rx="10" ry="10" fill-rule="evenodd"/><path fill-rule="evenodd" stroke="#000" d="M200 255H0v-10h200z"/><path d="M90 345H0v-90h90v90z" fill="#ff0" fill-rule="evenodd"/><path d="M0 345v-90h90L0 345z" fill="red" fill-rule="evenodd"/><path d="M90 345H0v-90h90v90z" fill="none" stroke="#000" stroke-linejoin="round"/></g></svg>