<svg xmlns="http://www.w3.org/2000/svg" width="600" height="500" version="1"><defs><marker orient="auto" id="b" overflow="visible"><path d="M0 0l-2 2 7-2-7-2 2 2z" fill-rule="evenodd" stroke="#000" stroke-width=".4pt"/></marker><marker orient="auto" id="a" overflow="visible"><path d="M0 0l2-2-7 2 7 2-2-2z" fill-rule="evenodd" stroke="#000" stroke-width=".4pt"/></marker></defs><path d="M325 210a25 25 0 1 1-50 0 25 25 0 1 1 50 0z" fill-rule="evenodd"/><rect width="70" height="160" x="265" y="240" rx="20" ry="21.333" fill-rule="evenodd"/><path d="M72.276 369.454A278 278 0 0 1 22 210M578 210a278 278 0 0 1-50.276 159.454" fill="none" stroke="#000" stroke-width="5" marker-start="url(#a)" marker-end="url(#b)" stroke-dasharray="10,5"/><rect ry="10" rx="10" y="-363.554" x="-10" height="20" width="70" transform="rotate(135)" fill-rule="evenodd"/><path fill-rule="evenodd" stroke="#000" d="M218.18 288.891L76.76 430.313l-7.072-7.071L211.11 281.82z"/><path d="M204.038 430.312l-63.64 63.64-63.64-63.64 63.64-63.64 63.64 63.64z" fill="#ff0" fill-rule="evenodd"/><path d="M140.398 493.952l-63.64-63.64 63.64-63.64v127.28z" fill="red" fill-rule="evenodd"/><path d="M204.038 430.312l-63.64 63.64-63.64-63.64 63.64-63.64 63.64 63.64z" fill="none" stroke="#000" stroke-linejoin="round"/><g><rect ry="10" rx="10" y="-10" x="-363.553" height="20" width="70" transform="rotate(-135)" fill-rule="evenodd"/><path fill-rule="evenodd" stroke="#000" d="M211.109 218.18L69.688 76.759l7.07-7.071 141.422 141.42z"/><path d="M69.688 204.038l-63.64-63.64 63.64-63.64 63.64 63.64-63.64 63.64z" fill="#ff0" fill-rule="evenodd"/><path d="M6.048 140.398l63.64-63.64 63.64 63.64H6.047z" fill="red" fill-rule="evenodd"/><path d="M69.688 204.038l-63.64-63.64 63.64-63.64 63.64 63.64-63.64 63.64z" fill="none" stroke="#000" stroke-linejoin="round"/></g><g><rect width="70" height="20" x="60.711" y="414.264" rx="10" ry="10" transform="rotate(-45)" fill-rule="evenodd"/><path fill-rule="evenodd" stroke="#000" d="M381.82 211.109L523.242 69.688l7.07 7.07-141.42 141.422z"/><path d="M530.312 204.038l-63.64-63.64 63.64-63.64 63.64 63.64-63.64 63.64z" fill="#ff0" fill-rule="evenodd"/><path d="M466.673 140.398l63.64-63.64 63.639 63.64h-127.28z" fill="red" fill-rule="evenodd"/><path d="M530.312 204.038l-63.64-63.64 63.64-63.64 63.64 63.64-63.64 63.64z" fill="none" stroke="#000" stroke-linejoin="round"/></g><g><rect width="70" height="20" x="414.264" y="-80.711" rx="10" ry="10" transform="rotate(45)" fill-rule="evenodd"/><path fill-rule="evenodd" stroke="#000" d="M388.891 281.82L530.313 423.24l-7.071 7.071L381.82 288.891z"/><path d="M395.962 430.312l63.64-63.64 63.64 63.64-63.64 63.64-63.64-63.64z" fill="#ff0" fill-rule="evenodd"/><path d="M459.602 366.673l63.64 63.64-63.64 63.639v-127.28z" fill="red" fill-rule="evenodd"/><path d="M395.962 430.312l63.64-63.64 63.64 63.64-63.64 63.64-63.64-63.64z" fill="none" stroke="#000" stroke-linejoin="round"/></g></svg>