<svg xmlns="http://www.w3.org/2000/svg" width="600" height="500" version="1"><g fill-rule="evenodd"><path d="M325 210a25 25 0 1 1-50 0 25 25 0 1 1 50 0z"/><rect width="70" height="160" x="265" y="240" rx="20" ry="21.333"/></g><rect ry="10" rx="10" y="240" x="340" height="20" width="70" fill-rule="evenodd"/><path fill-rule="evenodd" stroke="#000" d="M400 245h200v10H400z"/><path d="M510 345v-90h90v90h-90z" fill="#ff0" fill-rule="evenodd"/><path d="M510 255h90v90l-90-90z" fill="red" fill-rule="evenodd"/><path d="M510 345v-90h90v90h-90z" fill="none" stroke="#000" stroke-linejoin="round"/><g><rect ry="10" rx="10" y="-260" x="240" height="20" width="70" transform="rotate(90)" fill-rule="evenodd"/><path transform="rotate(90)" fill-rule="evenodd" stroke="#000" d="M300-255h200v10H300z"/><path d="M345 410v90h-90v-90h90z" fill="#ff0" fill-rule="evenodd"/><path d="M345 500h-90v-90l90 90z" fill="red" fill-rule="evenodd"/><path d="M345 410v90h-90v-90h90z" fill="none" stroke="#000" stroke-linejoin="round"/></g></svg>