<svg xmlns="http://www.w3.org/2000/svg" width="600" height="500" version="1"><g fill-rule="evenodd"><path d="M325 210a25 25 0 1 1-50 0 25 25 0 1 1 50 0z"/><rect width="70" height="160" x="265" y="240" rx="20" ry="21.333"/></g><rect width="70" height="20" x="414.264" y="-80.711" rx="10" ry="10" transform="rotate(45)" fill-rule="evenodd"/><path fill-rule="evenodd" stroke="#000" d="M388.891 281.82L530.313 423.24l-7.071 7.071L381.82 288.891z"/><path d="M395.962 430.312l63.64-63.64 63.64 63.64-63.64 63.64-63.64-63.64z" fill="#ff0" fill-rule="evenodd"/><path d="M459.602 366.673l63.64 63.64-63.64 63.639v-127.28z" fill="red" fill-rule="evenodd"/><path d="M395.962 430.312l63.64-63.64 63.64 63.64-63.64 63.64-63.64-63.64z" fill="none" stroke="#000" stroke-linejoin="round"/><g><rect ry="10" rx="10" y="-260" x="240" height="20" width="70" transform="rotate(90)" fill-rule="evenodd"/><path transform="rotate(90)" fill-rule="evenodd" stroke="#000" d="M300-255h200v10H300z"/><path d="M345 410v90h-90v-90h90z" fill="#ff0" fill-rule="evenodd"/><path d="M345 500h-90v-90l90 90z" fill="red" fill-rule="evenodd"/><path d="M345 410v90h-90v-90h90z" fill="none" stroke="#000" stroke-linejoin="round"/></g></svg>