<svg xmlns="http://www.w3.org/2000/svg" width="600" height="500" version="1"><g fill-rule="evenodd"><path d="M325 210a25 25 0 1 1-50 0 25 25 0 1 1 50 0z"/><rect width="70" height="160" x="265" y="240" rx="20" ry="21.333"/></g><rect width="70" height="20" x="414.264" y="-80.711" rx="10" ry="10" transform="rotate(45)" fill-rule="evenodd"/><path fill-rule="evenodd" stroke="#000" d="M388.891 281.82L530.313 423.24l-7.071 7.071L381.82 288.891z"/><path d="M395.962 430.312l63.64-63.64 63.64 63.64-63.64 63.64-63.64-63.64z" fill="#ff0" fill-rule="evenodd"/><path d="M459.602 366.673l63.64 63.64-63.64 63.639v-127.28z" fill="red" fill-rule="evenodd"/><path d="M395.962 430.312l63.64-63.64 63.64 63.64-63.64 63.64-63.64-63.64z" fill="none" stroke="#000" stroke-linejoin="round"/><g><rect ry="10" rx="10" y="-363.553" x="-10" height="20" width="70" transform="rotate(135)" fill-rule="evenodd"/><path fill-rule="evenodd" stroke="#000" d="M218.18 288.89L76.759 430.313l-7.071-7.071 141.42-141.421z"/><path d="M204.038 430.312l-63.64 63.64-63.64-63.64 63.64-63.64 63.64 63.64z" fill="#ff0" fill-rule="evenodd"/><path d="M140.398 493.952l-63.64-63.64 63.64-63.64v127.28z" fill="red" fill-rule="evenodd"/><path d="M204.038 430.312l-63.64 63.64-63.64-63.64 63.64-63.64 63.64 63.64z" fill="none" stroke="#000" stroke-linejoin="round"/></g></svg>